<svg xmlns="http://www.w3.org/2000/svg" version="1.1" xmlns:xlink="http://www.w3.org/1999/xlink" width="1000" height="1000"><g clip-path="url(#SvgjsClipPath1090)"><rect width="1000" height="1000" fill="#fedfe1"></rect><g transform="matrix(25,0,0,25,50,50)"><svg xmlns="http://www.w3.org/2000/svg" version="1.1" xmlns:xlink="http://www.w3.org/1999/xlink" width="36" height="36"><svg xmlns="http://www.w3.org/2000/svg" viewBox="0 0 36 36"><path fill="#939598" d="M0 34h36v2H0z"></path><path fill="#58595B" d="M8 32c0-1.657-1.344-3-3-3s-3 1.343-3 3 1.343 3 3 3 3-1.343 3-3z"></path><path fill="#292F33" d="M7 32c0-1.105-.896-2-2-2s-2 .895-2 2 .896 2 2 2 2-.895 2-2z"></path><path fill="#58595B" d="M16 32c0-1.657-1.344-3-3-3s-3 1.343-3 3 1.343 3 3 3 3-1.343 3-3z"></path><path fill="#292F33" d="M15 32c0-1.105-.896-2-2-2s-2 .895-2 2 .896 2 2 2 2-.895 2-2z"></path><circle fill="#58595B" cx="32" cy="32" r="3"></circle><circle fill="#292F33" cx="32" cy="32" r="2"></circle><circle fill="#58595B" cx="24" cy="32" r="3"></circle><circle fill="#292F33" cx="24" cy="32" r="2"></circle><path fill="#5C913B" d="M0 28h36v4H0z"></path><path fill="#FFE8B6" d="M0 16h36v12H0z"></path><path fill="#FFAC33" d="M0 26h36v2H0z"></path><path fill="#77B255" d="M32.555 14H3.445C1.969 14 .693 14.81 0 16h36c-.693-1.19-1.969-2-3.445-2z"></path><path d="M5 22c0 .553-.447 1-1 1H2c-.552 0-1-.447-1-1v-2c0-.553.448-1 1-1h2c.553 0 1 .447 1 1v2zm6 0c0 .553-.447 1-1 1H8c-.552 0-1-.447-1-1v-2c0-.553.448-1 1-1h2c.553 0 1 .447 1 1v2zm6 0c0 .553-.447 1-1 1h-2c-.553 0-1-.447-1-1v-2c0-.553.447-1 1-1h2c.553 0 1 .447 1 1v2zm6 0c0 .553-.447 1-1 1h-2c-.553 0-1-.447-1-1v-2c0-.553.447-1 1-1h2c.553 0 1 .447 1 1v2zm6 0c0 .553-.447 1-1 1h-2c-.553 0-1-.447-1-1v-2c0-.553.447-1 1-1h2c.553 0 1 .447 1 1v2zm6 0c0 .553-.447 1-1 1h-2c-.553 0-1-.447-1-1v-2c0-.553.447-1 1-1h2c.553 0 1 .447 1 1v2z" fill="#55ACEE"></path></svg></svg></g></g><defs><clipPath id="SvgjsClipPath1090"><rect width="1000" height="1000" x="0" y="0" rx="300" ry="300"></rect></clipPath></defs></svg>